{"title":"Maid.in.Manhattan.2002.BDRip.x264.AC3.RoSubbed-playSD","uid":12288403,"size":1045832185,"categoryP":"video","categoryS":"movies","magnet":"?xt=urn:btih:266348401d5d5ed78e60dd4654636b25188c073e&amp;dn=Maid.in.Manhattan.2002.BDRip.x264.AC3.RoSubbed-playSD&amp;tr=udp%3A%2F%2Ftracker.openbittorrent.com%3A80&amp;tr=udp%3A%2F%2Fopen.demonii.com%3A1337&amp;tr=udp%3A%2F%2Ftracker.coppersurfer.tk%3A6969&amp;tr=udp%3A%2F%2Fexodus.desync.com%3A6969","seeders":0,"leechers":1,"uploader":"TvTeam","files":5,"time":1440512009,"description":"------------------------------------------------------------------------\n\n &lt;a href=&quot; https://www.torrenting.com&quot; rel=&quot;nofollow&quot; target=&quot;_NEW&quot;&gt; https://www.torrenting.com&lt;/a&gt;\n\nSign up is OPEN - for time being. Come and have fun.\n\n------------------------------------------------------------------------General\nUnique ID                                : 238394638490430919853930998207041068051 (0xB35923251C403CAF9D69BFA6B7C95C13)\nComplete name                            : C:UsersMadaliNCTDesktopMaid in Manhattan 2002.mkv\nFormat                                   : Matroska\nFormat version                           : Version 2\nFile size                                : 987 MiB\nDuration                                 : 1h 45mn\nOverall bit rate                         : 1 311 Kbps\nEncoded date                             : UTC \nWriting application                      : HandBrake 0.10.2 2015060900\nWriting library                          : Lavf55.12.0\n\nVideo\nID                                       : 1\nFormat                                   : AVC\nFormat/Info                              : Advanced Video Codec\nFormat profile                           : High@L4\nFormat settings, CABAC                   : No\nFormat settings, ReFrames                : 4 frames\nCodec ID                                 : V_MPEG4/ISO/AVC\nDuration                                 : 1h 45mn\nBit rate                                 : 901 Kbps\nWidth                                    : 720 pixels\nHeight                                   : 300 pixels\nDisplay aspect ratio                     : 2.40:1\nFrame rate mode                          : Constant\nFrame rate                               : 23.976 fps\nColor space                              : YUV\nChroma subsampling                       : 4:2:0\nBit depth                                : 8 bits\nScan type                                : Progressive\nBits/(Pixel*Frame)                       : 0.174\nStream size                              : 678 MiB (69%)\nWriting library                          : x264 core 142 r2479 dd79a61\nEncoding settings                        : cabac=0 / ref=1 / deblock=0:-1:-1 / analyse=0x3:0x113 / me=hex / subme=2 / psy=1 / psy_rd=1.00:0.15 / mixed_ref=0 / me_range=16 / chroma_me=1 / trellis=0 / 8x8dct=1 / cqm=0 / deadzone=21,11 / fast_pskip=1 / chroma_qp_offset=0 / threads=6 / lookahead_threads=2 / sliced_threads=0 / nr=0 / decimate=1 / interlaced=0 / bluray_compat=0 / constrained_intra=0 / bframes=3 / b_pyramid=2 / b_adapt=1 / b_bias=0 / direct=1 / weightb=0 / open_gop=0 / weightp=0 / keyint=240 / keyint_min=24 / scenecut=40 / intra_refresh=0 / rc_lookahead=10 / rc=crf / mbtree=1 / crf=19.0 / qcomp=0.60 / qpmin=0 / qpmax=69 / qpstep=4 / vbv_maxrate=25000 / vbv_bufsize=31250 / crf_max=0.0 / nal_hrd=none / filler=0 / ip_ratio=1.40 / aq=1:1.00\nDefault                                  : Yes\nForced                                   : No\nColor range                              : Limited\nColor primaries                          : BT.709\nTransfer characteristics                 : BT.709\nMatrix coefficients                      : BT.709\n\nAudio\nID                                       : 2\nFormat                                   : AC-3\nFormat/Info                              : Audio Coding 3\nMode extension                           : CM (complete main)\nFormat settings, Endianness              : Big\nCodec ID                                 : A_AC3\nDuration                                 : 1h 45mn\nBit rate mode                            : Constant\nBit rate                                 : 384 Kbps\nChannel(s)                               : 6 channels\nChannel positions                        : Front: L C R, Side: L R, LFE\nSampling rate                            : 48.0 KHz\nCompression mode                         : Lossy\nDelay relative to video                  : 27ms\nStream size                              : 289 MiB (29%)\nTitle                                    : Surround\nLanguage                                 : English\nDefault                                  : Yes\nForced                                   : No\n\nMenu\n00:00:00.000                             : :Chapter 1\n00:07:59.270                             : :Chapter 2\n00:13:31.602                             : :Chapter 3\n00:19:01.306                             : :Chapter 4\n00:27:00.660                             : :Chapter 5\n00:33:15.994                             : :Chapter 6\n00:39:46.008                             : :Chapter 7\n00:44:43.013                             : :Chapter 8\n00:50:24.813                             : :Chapter 9\n00:58:30.423                             : :Chapter 10\n01:04:51.637                             : :Chapter 11\n01:10:34.814                             : :Chapter 12\n01:15:24.561                             : :Chapter 13\n01:20:19.856                             : :Chapter 14\n01:28:02.735                             : :Chapter 15\n01:35:03.322                             : :Chapter 16","torrent":{"xt":"urn:btih:266348401d5d5ed78e60dd4654636b25188c073e","amp;dn":"Maid.in.Manhattan.2002.BDRip.x264.AC3.RoSubbed-playSD","amp;tr":["udp%3A%2F%2Ftracker.openbittorrent.com%3A80","udp%3A%2F%2Fopen.demonii.com%3A1337","udp%3A%2F%2Ftracker.coppersurfer.tk%3A6969","udp%3A%2F%2Fexodus.desync.com%3A6969"],"infoHash":"266348401d5d5ed78e60dd4654636b25188c073e","infoHashBuffer":{"type":"Buffer","data":[38,99,72,64,29,93,94,215,142,96,221,70,84,99,107,37,24,140,7,62]},"announce":[],"urlList":[]}}